ModelForces
version=1
nRows=4
nColumns=103
inDegrees=no

This file contains the forces exerted on a model during a simulation.

A force is a generalized force, meaning that it can be either a force (N) or a torque (Nm).

Units are S.I. units (second, meters, Newtons, ...)
Angles are in degrees.

endheader
time	glut_med1_r	glut_med2_r	glut_med3_r	glut_min1_r	glut_min2_r	glut_min3_r	semimem_r	semiten_r	bifemlh_r	bifemsh_r	sar_r	add_long_r	add_brev_r	add_mag1_r	add_mag2_r	add_mag3_r	tfl_r	pect_r	grac_r	glut_max1_r	glut_max2_r	glut_max3_r	iliacus_r	psoas_r	quad_fem_r	gem_r	peri_r	rect_fem_r	vas_med_r	vas_int_r	vas_lat_r	med_gas_r	lat_gas_r	soleus_r	tib_post_r	flex_dig_r	flex_hal_r	tib_ant_r	per_brev_r	per_long_r	per_tert_r	ext_dig_r	ext_hal_r	glut_med1_l	glut_med2_l	glut_med3_l	glut_min1_l	glut_min2_l	glut_min3_l	semimem_l	semiten_l	bifemlh_l	bifemsh_l	sar_l	add_long_l	add_brev_l	add_mag1_l	add_mag2_l	add_mag3_l	tfl_l	pect_l	grac_l	glut_max1_l	glut_max2_l	glut_max3_l	iliacus_l	psoas_l	quad_fem_l	gem_l	peri_l	rect_fem_l	vas_med_l	vas_int_l	vas_lat_l	med_gas_l	lat_gas_l	soleus_l	tib_post_l	flex_dig_l	flex_hal_l	tib_ant_l	per_brev_l	per_long_l	per_tert_l	ext_dig_l	ext_hal_l	ercspn_r	ercspn_l	intobl_r	intobl_l	extobl_r	extobl_l	aACL_R	pACL_R	aPCL_R	pPCL_R	aMCL_R	aLCL_R	aPCL_L	pPCL_L	aMCL_L	aLCL_L
      0.02440738	     39.87838990	     16.76284413	     11.93620748	     12.41406856	     11.47086507	      8.98992176	      0.00000000	     45.20494396	     18.48341350	     53.69516047	     53.60150299	     28.64640847	     20.41069656	     13.21013158	      9.89972546	     14.21860311	      0.00000000	     10.59934605	     36.74372982	     10.60531058	     16.16616884	     12.03858605	     63.46881505	     57.60089428	      7.25719092	      2.36794256	      8.74952767	      0.00000000	      0.00000000	      0.00000000	      0.00000000	      0.00000000	      0.00000000	      1.24508909	     38.23593058	     15.67545078	     12.98461460	     55.49765887	     18.63299863	     37.56164150	      8.18029139	     31.37781985	      9.63366380	     47.42039030	     32.50749554	     28.51811599	      0.00000000	      0.00000000	     19.73724498	     14.24154169	     10.58260667	      9.99763677	     18.90691058	      4.79961725	     14.84812951	      8.55431828	      3.72185255	      4.55908994	     11.40303614	     10.89761534	      6.12780152	      3.43154480	     13.82294692	     17.41154042	      7.42801401	     65.49304415	     58.79058635	      2.98157968	      3.07888504	     16.47249350	     13.92739857	      2.76950362	      2.80777489	      2.27452201	      2.73204663	      0.44380245	     17.50148594	     40.72200824	     20.09928209	     19.99394518	     52.24986891	     12.22752508	     38.86025752	     10.22180388	     20.14298491	      5.48916409	    133.17651631	     71.06849057	     56.25872307	     11.82245903	     66.30574687	     36.67515103	      6.14257249	     37.31990498	      0.00000000	      0.00000000	      0.00000000	      0.00000000	      0.00000000	      0.72053596	    -30.20478858	    -72.27701048
      0.02482912	     39.64809972	     16.77521836	     12.01417707	     12.27360517	     11.28327700	      8.86060421	      0.00000000	     43.83139962	     16.76601021	     51.66563644	     53.67233505	     28.42436218	     20.33244671	     13.42655908	     10.05701971	     14.37144291	      0.00000000	     10.47631591	     36.28660948	     10.69947439	     16.39082527	     12.34291195	     62.64374082	     56.91976634	      7.30236680	      2.36542759	      8.58709473	      0.00000000	      0.00000000	      0.00000000	      0.00000000	      0.00000000	      0.00000000	      0.80455225	     37.53334418	     15.60373661	     12.89889399	     55.18351177	     18.78677551	     37.55711552	      9.12413604	     31.36670715	      9.61586202	     47.33749383	     32.38369048	     28.52581267	      0.69494113	      0.00000000	     19.65054440	     14.07555993	     10.52437317	     10.08952137	     18.72237922	      4.76360338	     14.58271928	      8.50899803	      3.68509911	      4.50964372	     11.30583633	     10.81525890	      6.07050117	      3.39955899	     13.83574410	     17.40098088	      7.38813385	     65.08983741	     58.40677913	      2.89921767	      2.95245234	     16.40477976	     13.83557223	      2.77854773	      2.80605588	      2.28803953	      2.88016779	      0.58430801	     18.46986181	     41.01540604	     20.04951298	     20.02522810	     51.76145711	     12.09495986	     38.53640896	     10.13640331	     19.68352490	      5.33967468	    132.26387215	     70.28718534	     56.07085691	     11.71860480	     66.33897228	     36.70447431	      3.63059501	     41.90749097	      0.00000000	      0.00000000	      0.00000000	      0.00000000	      0.00000000	     -0.35651318	    -30.95369166	      0.00000000
      0.02535081	     39.40495672	     16.82517901	     12.13773616	     12.12991224	     11.08966395	      8.72324310	      0.00000000	     42.22599401	     14.69963306	     49.36918229	     53.41095520	     28.11702808	     20.18183970	     13.65966696	     10.24950161	     14.56844843	      0.00000000	     10.30667048	     35.75766792	     10.82951374	     16.68824958	     12.73234257	     61.58133928	     56.05265451	      7.33882527	      2.36202761	      8.40027226	      0.00000000	      0.00000000	      0.00000000	      0.00000000	      0.00000000	      0.00000000	      0.27648683	     36.64007012	     15.50231069	     12.78257417	     54.87389428	     19.01035945	     37.58241728	     10.34726597	     31.33423249	      9.59157770	     47.17253848	     32.21850803	     28.48337013	      5.39419872	      0.00000000	     19.53874787	     13.83316869	     10.42575478	     10.16243079	     18.33937568	      4.69117963	     14.28393803	      8.46776910	      3.64842932	      4.45709419	     11.19511545	     10.69845582	      6.00607607	      3.34308239	     13.84703882	     17.38366624	      7.34592003	     64.59341852	     57.93227796	      2.80549327	      2.80543543	     16.30877772	     13.67282553	      2.71588225	      2.72767348	      2.22040928	      3.02841163	      0.73837273	     19.66351390	     41.33721897	     19.96143458	     20.00117447	     51.16625792	     11.97331688	     38.19163821	     10.05060444	     19.13877597	      5.16151776	    131.00205792	     69.42445605	     55.81881577	     11.61598393	     66.32881503	     36.76591190	      0.37139743	     47.64293179	      0.00000000	      0.00000000	      0.00000000	      0.00000000	      0.00000000	     -6.42331446	    -36.37473691	      0.00000000
      0.02655434	     39.01478458	     17.07985203	     12.53185138	     11.89870045	     10.79199877	      8.49848487	      0.00000000	     38.89386519	     10.23082011	     44.86949564	     52.56909232	     27.28234723	     19.71680246	     14.03725951	     10.67330797	     15.05943222	      0.00000000	      9.85039464	     34.67978650	     11.18687513	     17.45992095	     13.69109194	     58.94983294	     53.94706353	      7.35499475	      2.35251783	      8.02727129	      0.00000000	      0.00000000	      0.00000000	      0.00000000	      0.00000000	      0.00000000	      0.00000000	     34.51763539	     15.22499655	     12.47903763	     54.25208474	     19.63429444	     37.74231884	     12.35072843	     31.18706755	      9.52736010	     46.73277257	     31.82049783	     28.20845295	     14.13185876	      6.28905033	     19.27945776	     13.10025593	     10.08504448	     10.14850233	     16.90824328	      4.45742533	     13.69661608	      8.38458232	      3.58502883	      4.36238709	     10.97358269	     10.35597468	      5.87541489	      3.16193081	     13.85463655	     17.32537902	      7.26795516	     63.46828030	     56.84656226	      2.61137106	      2.50299661	     16.04059657	     13.08511253	      2.33471518	      2.28693495	      1.77956178	      3.20258458	      0.99827510	     22.36493064	     41.89323930	     19.69004774	     19.80679556	     49.80671250	     11.86253277	     37.62441098	      9.93336668	     17.99535490	      4.78061252	    127.79846198	     67.80700068	     55.20483049	     11.47974793	     66.12683464	     37.00958315	     -7.69790654	     61.41572617	      0.00000000	      0.00000000	      0.00000000	      0.00000000	      0.00000000	    -14.57577234	    -45.04285300	      0.00000000
